<svg xmlns="http://www.w3.org/2000/svg" enable-background="new 0 0 50 50" viewBox="0 0 50 50" id="apartment">
  <g>
    <polygon fill="#589441" points="40.11 40.167 40.106 41.375 28.021 48.398 28.025 47.19"></polygon>
    <polygon fill="#73AE43" points="28.025 47.19 28.021 48.398 9.89 37.93 9.894 36.722"></polygon>
    <polygon fill="#91684B" points="40.11 41.371 40.106 42.579 28.021 49.602 28.025 48.394"></polygon>
    <polygon fill="#A57859" points="28.025 48.394 28.021 49.602 9.89 39.134 9.894 37.926"></polygon>
    <polygon fill="#A9C838" points="40.11 40.167 28.025 47.19 9.894 36.722 21.979 29.699"></polygon>
  </g>
  <g>
    <polygon fill="#B9B9BA" points="37.471 9.178 37.384 39.872 28.642 44.953 28.729 14.259"></polygon>
    <polygon fill="#E8E8E8" points="28.729 14.259 28.642 44.953 13.434 36.172 13.521 5.478"></polygon>
    <polygon fill="#F1F1F1" points="37.471 9.178 28.729 14.259 13.521 5.478 22.263 .398"></polygon>
    <polygon fill="#686868" points="34.815 9.822 22.264 2.576 16.177 6.113 28.729 13.359"></polygon>
  </g>
  <g>
    <polygon fill="#E8E8E8" points="35.914 12.015 35.47 11.757 35.53 38.61 35.974 38.868"></polygon>
    <polygon fill="#F1F1F1" points="36.862 11.468 36.418 11.21 35.47 11.757 35.914 12.015"></polygon>
    <polygon fill="#D7D7D7" points="35.914 12.015 35.974 38.868 36.922 38.321 36.862 11.468"></polygon>
  </g>
  <g>
    <polygon fill="#E8E8E8" points="33.99 13.095 33.545 12.837 33.605 39.69 34.049 39.948"></polygon>
    <polygon fill="#F1F1F1" points="34.938 12.548 34.494 12.29 33.545 12.837 33.99 13.095"></polygon>
    <polygon fill="#D7D7D7" points="33.99 13.095 34.049 39.948 34.998 39.401 34.938 12.548"></polygon>
  </g>
  <g>
    <polygon fill="#E8E8E8" points="32.065 14.176 31.621 13.918 31.681 40.771 32.125 41.029"></polygon>
    <polygon fill="#F1F1F1" points="33.013 13.628 32.569 13.37 31.621 13.918 32.065 14.176"></polygon>
    <polygon fill="#D7D7D7" points="32.065 14.176 32.125 41.029 33.073 40.481 33.013 13.628"></polygon>
  </g>
  <g>
    <polygon fill="#E8E8E8" points="30.141 15.256 29.696 14.998 29.756 41.851 30.2 42.109"></polygon>
    <polygon fill="#F1F1F1" points="31.089 14.709 30.645 14.451 29.696 14.998 30.141 15.256"></polygon>
    <polygon fill="#D7D7D7" points="30.141 15.256 30.2 42.109 31.149 41.562 31.089 14.709"></polygon>
  </g>
  <polygon fill="#B9B9BA" points="15.075 5.476 16.177 6.113 22.264 2.576 22.264 1.298"></polygon>
  <polygon fill="#808081" points="22.264 1.298 22.264 2.576 34.815 9.822 35.917 9.181"></polygon>
  <polygon fill="#646565" points="14.648 7.194 14.639 10.221 16.855 11.5 16.864 8.473"></polygon>
  <polygon fill="#B9B9BA" points="14.639 10.221 14.648 7.194 14.323 7.007 14.313 10.445 14.639 10.221"></polygon>
  <polygon fill="#F1F1F1" points="14.639 10.221 14.313 10.445 14.313 10.445 16.854 11.912 16.855 11.5"></polygon>
  <polygon fill="#646565" points="18.312 9.309 18.303 12.336 20.519 13.616 20.528 10.588"></polygon>
  <polygon fill="#B9B9BA" points="18.303 12.336 18.312 9.309 17.987 9.122 17.978 12.56 18.303 12.336"></polygon>
  <polygon fill="#F1F1F1" points="18.303 12.336 17.978 12.56 17.978 12.56 20.518 14.027 20.519 13.616"></polygon>
  <g>
    <polygon fill="#646565" points="21.976 11.424 21.967 14.452 24.183 15.731 24.192 12.704"></polygon>
    <polygon fill="#B9B9BA" points="21.967 14.452 21.976 11.424 21.651 11.237 21.642 14.676 21.967 14.452"></polygon>
    <polygon fill="#F1F1F1" points="21.967 14.452 21.642 14.676 21.642 14.676 24.182 16.142 24.183 15.731"></polygon>
  </g>
  <g>
    <polygon fill="#646565" points="25.64 13.54 25.631 16.567 27.847 17.846 27.856 14.819"></polygon>
    <polygon fill="#B9B9BA" points="25.631 16.567 25.64 13.54 25.316 13.352 25.306 16.791 25.631 16.567"></polygon>
    <polygon fill="#F1F1F1" points="25.631 16.567 25.306 16.791 25.306 16.791 27.846 18.258 27.847 17.846"></polygon>
  </g>
  <g>
    <polygon fill="#646565" points="14.648 11.612 14.639 14.639 16.855 15.918 16.864 12.891"></polygon>
    <polygon fill="#B9B9BA" points="14.639 14.639 14.648 11.612 14.323 11.424 14.313 14.863 14.639 14.639"></polygon>
    <polygon fill="#F1F1F1" points="14.639 14.639 14.313 14.863 14.313 14.863 16.854 16.33 16.855 15.918"></polygon>
    <polygon fill="#646565" points="18.312 13.727 18.303 16.754 20.519 18.033 20.528 15.006"></polygon>
    <polygon fill="#B9B9BA" points="18.303 16.754 18.312 13.727 17.987 13.54 17.978 16.978 18.303 16.754"></polygon>
    <polygon fill="#F1F1F1" points="18.303 16.754 17.978 16.978 17.978 16.978 20.518 18.445 20.519 18.033"></polygon>
    <g>
      <polygon fill="#646565" points="21.976 15.842 21.967 18.869 24.183 20.148 24.192 17.121"></polygon>
      <polygon fill="#B9B9BA" points="21.967 18.869 21.976 15.842 21.651 15.655 21.642 19.093 21.967 18.869"></polygon>
      <polygon fill="#F1F1F1" points="21.967 18.869 21.642 19.093 21.642 19.093 24.182 20.56 24.183 20.148"></polygon>
    </g>
    <g>
      <polygon fill="#646565" points="25.64 17.957 25.631 20.985 27.847 22.264 27.856 19.236"></polygon>
      <polygon fill="#B9B9BA" points="25.631 20.985 25.64 17.957 25.316 17.77 25.306 21.209 25.631 20.985"></polygon>
      <polygon fill="#F1F1F1" points="25.631 20.985 25.306 21.209 25.306 21.209 27.846 22.675 27.847 22.264"></polygon>
    </g>
  </g>
  <g>
    <polygon fill="#646565" points="14.648 16.029 14.639 19.057 16.855 20.336 16.864 17.308"></polygon>
    <polygon fill="#B9B9BA" points="14.639 19.057 14.648 16.029 14.323 15.842 14.313 19.281 14.639 19.057"></polygon>
    <polygon fill="#F1F1F1" points="14.639 19.057 14.313 19.281 14.313 19.281 16.854 20.747 16.855 20.336"></polygon>
    <polygon fill="#646565" points="18.312 18.145 18.303 21.172 20.519 22.451 20.528 19.424"></polygon>
    <polygon fill="#B9B9BA" points="18.303 21.172 18.312 18.145 17.987 17.957 17.978 21.396 18.303 21.172"></polygon>
    <polygon fill="#F1F1F1" points="18.303 21.172 17.978 21.396 17.978 21.396 20.518 22.863 20.519 22.451"></polygon>
    <g>
      <polygon fill="#646565" points="21.976 20.26 21.967 23.287 24.183 24.566 24.192 21.539"></polygon>
      <polygon fill="#B9B9BA" points="21.967 23.287 21.976 20.26 21.651 20.073 21.642 23.511 21.967 23.287"></polygon>
      <polygon fill="#F1F1F1" points="21.967 23.287 21.642 23.511 21.642 23.511 24.182 24.978 24.183 24.566"></polygon>
    </g>
    <g>
      <polygon fill="#646565" points="25.64 22.375 25.631 25.402 27.847 26.681 27.856 23.654"></polygon>
      <polygon fill="#B9B9BA" points="25.631 25.402 25.64 22.375 25.316 22.188 25.306 25.626 25.631 25.402"></polygon>
      <polygon fill="#F1F1F1" points="25.631 25.402 25.306 25.626 25.306 25.626 27.846 27.093 27.847 26.681"></polygon>
    </g>
  </g>
  <g>
    <polygon fill="#646565" points="14.648 20.447 14.639 23.474 16.855 24.753 16.864 21.726"></polygon>
    <polygon fill="#B9B9BA" points="14.639 23.474 14.648 20.447 14.323 20.26 14.313 23.698 14.639 23.474"></polygon>
    <polygon fill="#F1F1F1" points="14.639 23.474 14.313 23.698 14.313 23.698 16.854 25.165 16.855 24.753"></polygon>
    <polygon fill="#646565" points="18.312 22.562 18.303 25.59 20.519 26.869 20.528 23.841"></polygon>
    <polygon fill="#B9B9BA" points="18.303 25.59 18.312 22.562 17.987 22.375 17.978 25.814 18.303 25.59"></polygon>
    <polygon fill="#F1F1F1" points="18.303 25.59 17.978 25.814 17.978 25.814 20.518 27.28 20.519 26.869"></polygon>
    <g>
      <polygon fill="#646565" points="21.976 24.678 21.967 27.705 24.183 28.984 24.192 25.957"></polygon>
      <polygon fill="#B9B9BA" points="21.967 27.705 21.976 24.678 21.651 24.49 21.642 27.929 21.967 27.705"></polygon>
      <polygon fill="#F1F1F1" points="21.967 27.705 21.642 27.929 21.642 27.929 24.182 29.396 24.183 28.984"></polygon>
    </g>
    <g>
      <polygon fill="#646565" points="25.64 26.793 25.631 29.82 27.847 31.099 27.856 28.072"></polygon>
      <polygon fill="#B9B9BA" points="25.631 29.82 25.64 26.793 25.316 26.605 25.306 30.044 25.631 29.82"></polygon>
      <polygon fill="#F1F1F1" points="25.631 29.82 25.306 30.044 25.306 30.044 27.846 31.511 27.847 31.099"></polygon>
    </g>
  </g>
  <g>
    <polygon fill="#646565" points="18.132 30.063 18.116 38.094 22.336 40.53 22.352 32.499"></polygon>
    <polygon fill="#B9B9BA" points="18.116 38.094 18.132 30.063 17.515 29.706 17.496 38.52 18.116 38.094"></polygon>
    <polygon fill="#F1F1F1" points="18.116 38.094 17.496 38.52 17.496 38.52 22.334 41.314 22.336 40.53"></polygon>
  </g>
</svg>
