<svg id="SvgjsSvg1001" width="288" height="288" xmlns="http://www.w3.org/2000/svg" version="1.1" xmlns:xlink="http://www.w3.org/1999/xlink" xmlns:svgjs="http://svgjs.com/svgjs"><defs id="SvgjsDefs1002"></defs><g id="SvgjsG1008"><svg xmlns="http://www.w3.org/2000/svg" enable-background="new 0 0 52 52" viewBox="0 0 52 52" width="288" height="288"><path d="M44.7000732,48.5h-1.4801025c0.0500488-0.1699829,0.0799561-0.3399658,0.0799561-0.5200195V22.8599854h0.0900879
		c1.7800293,0,2.6599121-2.1399536,1.4099121-3.3899536L28.1800537,2.9100342C27.5899658,2.3200073,26.8099365,2,25.9699707,2
		H25.960083c-0.8400879,0-1.6201172,0.3300171-2.2099609,0.9199829l-7.6601563,7.6900024V6.4199829h0.3999023
		c0.4101563,0,0.75-0.3399658,0.75-0.75c0-0.4199829-0.3398438-0.75-0.75-0.75h-1.1298828
		c-0.0100098-0.0099487-0.0100098-0.0099487-0.0200195-0.0099487H9.2398682c-0.0097656,0-0.0097656,0-0.0200195,0.0099487H8.0899658
		c-0.4099121,0-0.75,0.3300171-0.75,0.75c0,0.4100342,0.3400879,0.75,0.75,0.75h0.3999023v11.8099976L7.1900635,19.539978
		c-0.5700684,0.5700073-0.7399902,1.4200439-0.4301758,2.1700439c0.3100586,0.7299805,1.0300293,1.2099609,1.8200684,1.2099609
		c0.0100098,0,0.0100098,0,0.0200195,0h0.0900879v25.0599976c0,0.1800537,0.0297852,0.3500366,0.0800781,0.5200195H7.2999268
		c-0.4199219,0-0.75,0.3300171-0.75,0.75c0,0.4100342,0.3300781,0.75,0.75,0.75h37.4001465c0.4099121,0,0.75-0.3399658,0.75-0.75
		C45.4500732,48.8300171,45.1099854,48.5,44.7000732,48.5z M9.9898682,6.4199829h4.6000977v2.2300415H9.9898682V6.4199829z
		 M8.5899658,21.4199829c-0.2900391,0-0.4099121-0.2099609-0.4399414-0.289978
		c-0.0400391-0.0900269-0.1101074-0.3200073,0.1000977-0.5299683L24.8099365,3.9799805
		C25.1199951,3.6699829,25.5299072,3.5,25.9699707,3.5s0.8399658,0.1699829,1.1500244,0.4700317l16.6199951,16.5599976
		c0.2999268,0.3099976,0.0899658,0.8299561-0.3499756,0.8299561L8.5899658,21.4199829z M41.7999268,47.9799805
		c0,0.2800293-0.2299805,0.5200195-0.5100098,0.5200195H10.710083c-0.2900391,0-0.5200195-0.2399902-0.5200195-0.5200195V22.9299927
		h31.6098633V47.9799805z" fill="#34a853" class="svgShape color000000-0 selectable"></path><path d="M38.710083 44.75h-1.1501465v-7.1599731c0-.4200439-.3399658-.7600098-.75-.7600098h-3.789917c-.4100342 0-.75.3399658-.75.7600098V44.75h-2.4000244v-9.4199829c0-.4100342-.3399658-.7399902-.75-.7399902h-3.7800293c-.4199219 0-.75.3299561-.75.7399902V44.75h-2.3999023V31.5900269c0-.4200439-.3400879-.7600098-.75-.7600098h-3.7900391c-.4101563 0-.75.3399658-.75.7600098V44.75h-2.1201172V25.9299927c0-.4099731-.3398438-.75-.75-.75-.4199219 0-.75.3400269-.75.75V45.5c0 .4100342.3300781.75.75.75H38.710083c.4099121 0 .75-.3399658.75-.75C39.460083 45.0800171 39.1199951 44.75 38.710083 44.75zM28.3699951 44.75h-2.2800293v-8.6599731h2.2800293V44.75zM29.960083 13.3500366l-4.3100586 5.6299438C25.4300537 19.25 25.1199951 19.4000244 24.789917 19.4000244c-.1599121 0-.3200684-.0300293-.4699707-.1000366-.4699707-.2199707-.7099609-.7299805-.5898438-1.2299805l.7397461-3.2199707h-1.329834c-.5400391 0-1.0300293-.3000488-1.2600098-.7900391-.2399902-.4799805-.1799316-1.0499878.1499023-1.4699707l3.9301758-5.0800171c.3199463-.4099731.869873-.539978 1.3398438-.3099976.4700928.2299805.7000732.7399902.5700684 1.25l-.6799316 2.6099854 1.6899414.0400391c.5300293.0099487 1 .3099976 1.2299805.789978S30.289917 12.9299927 29.960083 13.3500366z" fill="#34a853" class="svgShape color000000-1 selectable"></path></svg></g></svg>