<svg xmlns="http://www.w3.org/2000/svg" xml:space="preserve" id="online-workspaces" x="0" y="0" style="enable-background:new 0 0 66 66" version="1.1" viewBox="0 0 66 66">
  <g>
    <g>
      <g>
        <g>
          <g>
            <g>
              <g>
                <g>
                  <g>
                    <g>
                      <rect width="60.26" height="5.91" x="2.87" y="50.47" style="fill:#ffd534"></rect>
                    </g>
                    <g>
                      <path d="M63.13,57.01H2.87c-0.35,0-0.63-0.28-0.63-0.63v-5.91c0-0.35,0.28-0.63,0.63-0.63h60.26
											c0.35,0,0.63,0.28,0.63,0.63v5.91C63.76,56.72,63.48,57.01,63.13,57.01z M3.5,55.75h59V51.1h-59V55.75z" style="fill:#010101"></path>
                    </g>
                  </g>
                </g>
                <g>
                  <g>
                    <rect width="5.24" height="5.07" x="4.68" y="56.38" style="fill:#fff"></rect>
                  </g>
                  <g>
                    <path d="M9.91,62.08c-0.35,0-0.63-0.28-0.63-0.63v-4.44H5.3v4.44c0,0.35-0.28,0.63-0.63,0.63
										c-0.35,0-0.63-0.28-0.63-0.63v-5.07c0-0.35,0.28-0.63,0.63-0.63h5.24c0.35,0,0.63,0.28,0.63,0.63v5.07
										C10.54,61.79,10.26,62.08,9.91,62.08z" style="fill:#010101"></path>
                  </g>
                  <g>
                    <rect width="5.24" height="5.07" x="56.09" y="56.38" style="fill:#fff"></rect>
                  </g>
                  <g>
                    <path d="M61.32,62.08c-0.35,0-0.63-0.28-0.63-0.63v-4.44h-3.98v4.44c0,0.35-0.28,0.63-0.63,0.63
										s-0.63-0.28-0.63-0.63v-5.07c0-0.35,0.28-0.63,0.63-0.63h5.24c0.35,0,0.63,0.28,0.63,0.63v5.07
										C61.95,61.79,61.67,62.08,61.32,62.08z" style="fill:#010101"></path>
                  </g>
                </g>
              </g>
            </g>
          </g>
          <g>
            <g>
              <g>
                <g>
                  <g>
                    <path d="M58.89,7.83v35.55H7.11V7.83c0-1.81,1.47-3.28,3.28-3.28h45.22C57.42,4.55,58.89,6.02,58.89,7.83z" style="fill:#4171b8"></path>
                  </g>
                  <g>
                    <rect width="42.53" height="29.59" x="11.73" y="9.18" style="fill:#fff"></rect>
                  </g>
                </g>
                <g>
                  <g>
                    <path d="M60.61,43.38v3.72c0,1.05-0.49,2.04-1.32,2.67c-0.59,0.45-1.31,0.69-2.05,0.69H8.75
										c-0.74,0-1.46-0.24-2.04-0.69c-0.83-0.64-1.32-1.62-1.32-2.67v-3.72H60.61z" style="fill:#4171b8"></path>
                  </g>
                  <g>
                    <path d="M43.85,43.38v1.66c0,0.47-0.22,0.91-0.59,1.19c-0.26,0.2-0.58,0.31-0.91,0.31H23.64
										c-0.33,0-0.65-0.11-0.91-0.31c-0.37-0.28-0.59-0.72-0.59-1.19v-1.66H43.85z" style="fill:#fff"></path>
                  </g>
                  <g>
                    <path d="M57.24,51.1H8.75c-0.87,0-1.73-0.29-2.43-0.82c-0.98-0.75-1.57-1.94-1.57-3.17v-3.72
										c0-0.35,0.28-0.63,0.63-0.63h55.23c0.35,0,0.63,0.28,0.63,0.63v3.72c0,1.26-0.57,2.41-1.56,3.17
										C58.97,50.81,58.13,51.1,57.24,51.1z M6.01,44.01v3.09c0,0.85,0.4,1.66,1.08,2.18c0.48,0.37,1.06,0.56,1.66,0.56h48.49
										c0.61,0,1.19-0.2,1.67-0.56c0.68-0.52,1.07-1.31,1.07-2.18v-3.09H6.01z" style="fill:#010101"></path>
                  </g>
                  <g>
                    <path d="M42.35,47.17H23.64c-0.46,0-0.92-0.16-1.29-0.44c-0.52-0.4-0.84-1.03-0.84-1.69v-1.66
										c0-0.35,0.28-0.63,0.63-0.63h21.71c0.35,0,0.63,0.28,0.63,0.63v1.66c0,0.66-0.31,1.29-0.83,1.69
										C43.27,47.02,42.83,47.17,42.35,47.17z M22.77,44.01v1.03c0,0.27,0.13,0.53,0.34,0.69c0.15,0.12,0.34,0.18,0.53,0.18h18.71
										c0.19,0,0.38-0.06,0.53-0.18c0.22-0.17,0.34-0.42,0.34-0.69v-1.03H22.77z" style="fill:#010101"></path>
                  </g>
                </g>
                <g>
                  <path d="M10.57,47.55h-1.2c-0.35,0-0.63-0.28-0.63-0.63s0.28-0.63,0.63-0.63h1.2c0.35,0,0.63,0.28,0.63,0.63
									S10.92,47.55,10.57,47.55z" style="fill:#fff"></path>
                </g>
                <g>
                  <path d="M13.97,47.55h-1.2c-0.35,0-0.63-0.28-0.63-0.63s0.28-0.63,0.63-0.63h1.2c0.35,0,0.63,0.28,0.63,0.63
									S14.32,47.55,13.97,47.55z" style="fill:#fff"></path>
                </g>
                <g>
                  <path d="M17.37,47.55h-1.2c-0.35,0-0.63-0.28-0.63-0.63s0.28-0.63,0.63-0.63h1.2c0.35,0,0.63,0.28,0.63,0.63
									S17.72,47.55,17.37,47.55z" style="fill:#fff"></path>
                </g>
              </g>
            </g>
            <g>
              <g>
                <path d="M58.88,44.01H7.11c-0.35,0-0.63-0.28-0.63-0.63V7.83c0-2.15,1.75-3.9,3.9-3.9h45.22
								c2.15,0,3.9,1.75,3.9,3.9v35.55C59.51,43.73,59.23,44.01,58.88,44.01z M7.74,42.75h50.52V7.83c0-1.46-1.19-2.65-2.64-2.65
								H10.39c-1.46,0-2.65,1.19-2.65,2.65V42.75z" style="fill:#010101"></path>
              </g>
              <g>
                <path d="M54.26,39.39H11.73c-0.35,0-0.63-0.28-0.63-0.63V9.18c0-0.35,0.28-0.63,0.63-0.63h42.53
								c0.35,0,0.63,0.28,0.63,0.63v29.59C54.89,39.11,54.61,39.39,54.26,39.39z M12.36,38.13h41.27V9.8H12.36V38.13z" style="fill:#010101"></path>
              </g>
            </g>
          </g>
        </g>
      </g>
    </g>
    <g>
      <g>
        <rect width="7.39" height="22.15" x="40.2" y="12.89" style="fill:#ffd534"></rect>
      </g>
      <g>
        <path d="M47.59,35.67H40.2c-0.35,0-0.63-0.28-0.63-0.63V12.89c0-0.35,0.28-0.63,0.63-0.63h7.39
				c0.35,0,0.63,0.28,0.63,0.63v22.15C48.22,35.39,47.94,35.67,47.59,35.67z M40.83,34.42h6.14v-20.9h-6.14V34.42z" style="fill:#010101"></path>
      </g>
      <g>
        <rect width="7.39" height="15.5" x="29.3" y="19.55" style="fill:#fff"></rect>
      </g>
      <g>
        <path d="M36.7,35.67H29.3c-0.35,0-0.63-0.28-0.63-0.63v-15.5c0-0.35,0.28-0.63,0.63-0.63h7.39
				c0.35,0,0.63,0.28,0.63,0.63v15.5C37.32,35.39,37.04,35.67,36.7,35.67z M29.93,34.42h6.14V20.17h-6.14V34.42z" style="fill:#010101"></path>
      </g>
      <g>
        <rect width="7.39" height="6.68" x="18.41" y="28.37" style="fill:#c0bfbf"></rect>
      </g>
      <g>
        <path d="M25.8,35.67h-7.39c-0.35,0-0.63-0.28-0.63-0.63v-6.68c0-0.35,0.28-0.63,0.63-0.63h7.39
				c0.35,0,0.63,0.28,0.63,0.63v6.68C26.43,35.39,26.15,35.67,25.8,35.67z M19.03,34.42h6.14v-5.42h-6.14V34.42z" style="fill:#010101"></path>
      </g>
      <g>
        <g>
          <path d="M44.65,23.34c-0.35,0-0.63-0.28-0.63-0.63V18.5c0-0.35,0.28-0.63,0.63-0.63s0.63,0.28,0.63,0.63v4.21
					C45.27,23.06,44.99,23.34,44.65,23.34z" style="fill:#fff"></path>
        </g>
        <g>
          <path d="M44.65,17.01c-0.35,0-0.63-0.28-0.63-0.63v-0.76c0-0.35,0.28-0.63,0.63-0.63s0.63,0.28,0.63,0.63v0.76
					C45.27,16.73,44.99,17.01,44.65,17.01z" style="fill:#fff"></path>
        </g>
      </g>
    </g>
  </g>
</svg>
