<svg xmlns="http://www.w3.org/2000/svg" xml:space="preserve" viewBox="0 0 64 64" id="computer">
  <path d="M61.87 38.98H46.19c-1.18 0-2.13-.96-2.13-2.13V4.15c0-1.18.96-2.13 2.13-2.13h15.68c1.18 0 2.13.96 2.13 2.13v32.69c0 1.18-.96 2.14-2.13 2.14M46.19 2.86c-.72 0-1.3.58-1.3 1.3v32.69c0 .72.58 1.3 1.3 1.3h15.68c.72 0 1.3-.58 1.3-1.3V4.15c0-.72-.58-1.3-1.3-1.3H46.19z"></path>
  <path d="M59.51 11.46H48.83c-1.15 0-2.08-.93-2.08-2.08V8.27c0-1.15.93-2.08 2.08-2.08h10.68c1.15 0 2.08.93 2.08 2.08v1.11c0 1.15-.93 2.08-2.08 2.08M48.83 7.03c-.68 0-1.24.56-1.24 1.24v1.11c0 .68.56 1.24 1.24 1.24h10.68c.68 0 1.24-.56 1.24-1.24V8.27c0-.68-.56-1.24-1.24-1.24zM59.51 19.66H48.83c-1.15 0-2.08-.93-2.08-2.08v-1.11c0-1.15.93-2.08 2.08-2.08h10.68c1.15 0 2.08.93 2.08 2.08v1.11c0 1.14-.93 2.08-2.08 2.08m-10.68-4.43c-.68 0-1.24.56-1.24 1.24v1.11c0 .68.56 1.24 1.24 1.24h10.68c.68 0 1.24-.56 1.24-1.24v-1.11c0-.68-.56-1.24-1.24-1.24zM58.94 27.88c-1.41 0-2.56-1.15-2.56-2.56s1.15-2.56 2.56-2.56 2.56 1.15 2.56 2.56c0 1.42-1.15 2.56-2.56 2.56m0-4.28a1.72 1.72 0 1 0 1.72 1.72c0-.94-.77-1.72-1.72-1.72M58.94 34.79c-1.41 0-2.56-1.15-2.56-2.56s1.15-2.56 2.56-2.56 2.56 1.15 2.56 2.56-1.15 2.56-2.56 2.56m0-4.28a1.72 1.72 0 1 0 0 3.44 1.72 1.72 0 0 0 0-3.44M38.99 30.89H3.26A3.26 3.26 0 0 1 0 27.63V5.11c0-1.8 1.46-3.26 3.26-3.26h35.73c1.8 0 3.26 1.46 3.26 3.26v22.51c0 1.8-1.46 3.27-3.26 3.27M3.26 2.68C1.92 2.68.83 3.77.83 5.11v22.51c0 1.34 1.09 2.43 2.43 2.43h35.73c1.34 0 2.43-1.09 2.43-2.43V5.11c0-1.34-1.09-2.43-2.43-2.43zM31.57 41.92H10.68a.77.77 0 0 1-.77-.77v-1.17c0-1.45 1.18-2.63 2.63-2.63H29.7c1.45 0 2.63 1.18 2.63 2.63v1.17c.01.42-.34.77-.76.77m-20.82-.84H31.5v-1.1c0-.99-.8-1.79-1.79-1.79H12.55c-.99 0-1.79.8-1.79 1.79v1.1z"></path>
  <path d="M16.55 38.19c-.23 0-.42-.19-.42-.42v-7.3c0-.23.19-.42.42-.42s.42.19.42.42v7.3c0 .23-.18.42-.42.42M25.7 38.19c-.23 0-.42-.19-.42-.42v-7.3c0-.23.19-.42.42-.42s.42.19.42.42v7.3c0 .23-.19.42-.42.42M41.84 26.68H.42c-.23 0-.42-.19-.42-.42s.19-.42.42-.42h41.42c.23 0 .42.19.42.42s-.19.42-.42.42M21.19 35.07c-1.18 0-2.15-.96-2.15-2.15v-2.46c0-.23.19-.42.42-.42s.42.19.42.42v2.46c0 .72.59 1.31 1.31 1.31s1.31-.59 1.31-1.31v-2.46c0-.23.19-.42.42-.42s.42.19.42.42v2.46c0 1.19-.96 2.15-2.15 2.15M40.79 62.15c-3.75 0-6.8-3.05-6.8-6.8v-6.24c0-3.75 3.05-6.8 6.8-6.8s6.8 3.05 6.8 6.8v6.24c0 3.75-3.05 6.8-6.8 6.8m0-18.99c-3.29 0-5.96 2.67-5.96 5.96v6.24c0 3.29 2.67 5.96 5.96 5.96s5.96-2.67 5.96-5.96v-6.24c0-3.29-2.67-5.96-5.96-5.96"></path>
  <path d="M40.79 50.85c-.23 0-.42-.19-.42-.42v-7.69c0-.23.19-.42.42-.42s.42.19.42.42v7.69c0 .24-.19.42-.42.42M19.09 19.38c-.04 0-.07 0-.11-.02a.42.42 0 0 1-.29-.3L16.15 8.93c-.04-.14.01-.29.11-.4.1-.1.25-.15.39-.11l10.23 2.44c.15.04.26.15.31.29.04.15 0 .3-.11.41L24.65 14l1.99 1.99c.16.16.16.43 0 .59L24.21 19q-.12.12-.3.12c-.11 0-.22-.05-.3-.12l-1.97-2-2.26 2.26c-.07.08-.18.12-.29.12m-1.96-9.99 2.19 8.75 2.03-2.03q.12-.12.3-.12c.1.01.22.04.3.12l1.97 2 1.83-1.83-1.99-1.99a.423.423 0 0 1 0-.59l2.2-2.2z"></path>
</svg>
